<mxfile host="app.diagrams.net" modified="2023-05-16T15:20:23.205Z" agent="Mozilla/5.0 (Windows NT 10.0; Win64; x64) AppleWebKit/537.36 (KHTML, like Gecko) Chrome/113.0.0.0 Safari/537.36" etag="vEYjdddZSvqjScGYnJ8v" version="21.3.2" type="device">
  <diagram name="Page-1" id="m_6L5T_f9njR_FrgPs_f">
    <mxGraphModel dx="2534" dy="2782" grid="1" gridSize="10" guides="1" tooltips="1" connect="1" arrows="1" fold="1" page="1" pageScale="1" pageWidth="1654" pageHeight="1169" math="0" shadow="0">
      <root>
        <mxCell id="0" />
        <mxCell id="1" parent="0" />
        <mxCell id="-OIp5PMVZEEh26yyn5nA-2" value="Restaurant&amp;nbsp; Le&amp;nbsp; Quai&amp;nbsp; &amp;nbsp;Antique" style="text;html=1;align=center;verticalAlign=middle;resizable=0;points=[];autosize=1;labelBackgroundColor=none;fillColor=#f0a30a;strokeColor=#BD7000;direction=west;fontColor=#000000;" parent="1" vertex="1">
          <mxGeometry x="465.63" y="-2330" width="180" height="30" as="geometry" />
        </mxCell>
        <mxCell id="-OIp5PMVZEEh26yyn5nA-5" value="" style="shape=umlActor;verticalLabelPosition=bottom;verticalAlign=top;html=1;outlineConnect=0;labelBackgroundColor=none;" parent="1" vertex="1">
          <mxGeometry x="12.5" y="-1930" width="30" height="60" as="geometry" />
        </mxCell>
        <mxCell id="-OIp5PMVZEEh26yyn5nA-16" value="*&lt;br&gt;" style="shape=umlActor;verticalLabelPosition=bottom;verticalAlign=top;html=1;outlineConnect=0;labelBackgroundColor=none;" parent="1" vertex="1">
          <mxGeometry x="32.5" y="-1390" width="30" height="60" as="geometry" />
        </mxCell>
        <mxCell id="-OIp5PMVZEEh26yyn5nA-54" value="Visiteur" style="text;html=1;strokeColor=none;fillColor=none;align=center;verticalAlign=middle;whiteSpace=wrap;rounded=0;labelBackgroundColor=none;" parent="1" vertex="1">
          <mxGeometry x="7.5" y="-1860" width="60" height="30" as="geometry" />
        </mxCell>
        <mxCell id="-OIp5PMVZEEh26yyn5nA-55" value="Client" style="text;html=1;strokeColor=none;fillColor=none;align=center;verticalAlign=middle;whiteSpace=wrap;rounded=0;labelBackgroundColor=none;" parent="1" vertex="1">
          <mxGeometry x="13.75" y="-1330" width="60" height="30" as="geometry" />
        </mxCell>
        <mxCell id="-OIp5PMVZEEh26yyn5nA-56" value="Administrateur" style="text;html=1;align=center;verticalAlign=middle;resizable=0;points=[];autosize=1;strokeColor=none;fillColor=none;labelBackgroundColor=none;rotation=0;" parent="1" vertex="1">
          <mxGeometry x="-26.25" y="-925" width="100" height="30" as="geometry" />
        </mxCell>
        <mxCell id="-OIp5PMVZEEh26yyn5nA-58" value="Créer un compte" style="ellipse;whiteSpace=wrap;html=1;labelBackgroundColor=none;fillColor=#a20025;strokeColor=#6F0000;fontColor=#ffffff;" parent="1" vertex="1">
          <mxGeometry x="180" y="-2240" width="120" height="60" as="geometry" />
        </mxCell>
        <mxCell id="-OIp5PMVZEEh26yyn5nA-59" value="Réserver une table" style="ellipse;whiteSpace=wrap;html=1;labelBackgroundColor=none;fillColor=#1ba1e2;strokeColor=#006EAF;fontColor=#ffffff;" parent="1" vertex="1">
          <mxGeometry x="273.75" y="-1915" width="140" height="60" as="geometry" />
        </mxCell>
        <mxCell id="-OIp5PMVZEEh26yyn5nA-60" value="consulter le site web (menus,plats,horaires,galerie d&#39;images)" style="ellipse;whiteSpace=wrap;html=1;labelBackgroundColor=none;fillColor=#a20025;strokeColor=#6F0000;fontColor=#ffffff;" parent="1" vertex="1">
          <mxGeometry x="182.5" y="-1720" width="230" height="70" as="geometry" />
        </mxCell>
        <mxCell id="-OIp5PMVZEEh26yyn5nA-61" value="Gerer son compte" style="ellipse;whiteSpace=wrap;html=1;fillColor=#1ba1e2;strokeColor=#006EAF;fontColor=#ffffff;" parent="1" vertex="1">
          <mxGeometry x="150" y="-1390" width="170" height="60" as="geometry" />
        </mxCell>
        <mxCell id="-OIp5PMVZEEh26yyn5nA-62" value="Voir ses réservation" style="ellipse;whiteSpace=wrap;html=1;fillColor=#1ba1e2;strokeColor=#006EAF;fontColor=#ffffff;" parent="1" vertex="1">
          <mxGeometry x="165" y="-1210" width="170" height="80" as="geometry" />
        </mxCell>
        <mxCell id="-OIp5PMVZEEh26yyn5nA-64" value="" style="shape=umlActor;verticalLabelPosition=bottom;verticalAlign=top;html=1;outlineConnect=0;" parent="1" vertex="1">
          <mxGeometry x="12.5" y="-985" width="30" height="60" as="geometry" />
        </mxCell>
        <mxCell id="-OIp5PMVZEEh26yyn5nA-65" value="Gérer la carte" style="ellipse;whiteSpace=wrap;html=1;fillColor=#1ba1e2;strokeColor=#006EAF;fontColor=#ffffff;" parent="1" vertex="1">
          <mxGeometry x="192.5" y="-985" width="170" height="60" as="geometry" />
        </mxCell>
        <mxCell id="-OIp5PMVZEEh26yyn5nA-66" value="Gérer la galerie d&#39;image" style="ellipse;whiteSpace=wrap;html=1;fillColor=#1ba1e2;strokeColor=#006EAF;fontColor=#ffffff;" parent="1" vertex="1">
          <mxGeometry x="185" y="-635" width="180" height="60" as="geometry" />
        </mxCell>
        <mxCell id="-OIp5PMVZEEh26yyn5nA-67" value="Gérer les horaires d&#39;ouverture" style="ellipse;whiteSpace=wrap;html=1;fillColor=#1ba1e2;strokeColor=#006EAF;fontColor=#ffffff;" parent="1" vertex="1">
          <mxGeometry x="165" y="-435" width="200" height="50" as="geometry" />
        </mxCell>
        <mxCell id="-OIp5PMVZEEh26yyn5nA-68" value="Gérer les réservations" style="ellipse;whiteSpace=wrap;html=1;fillColor=#1ba1e2;strokeColor=#006EAF;fontColor=#ffffff;" parent="1" vertex="1">
          <mxGeometry x="145" y="-195" width="190" height="50" as="geometry" />
        </mxCell>
        <mxCell id="-OIp5PMVZEEh26yyn5nA-73" value="Définir les allergies" style="ellipse;whiteSpace=wrap;html=1;fillColor=#f0a30a;strokeColor=#BD7000;fontColor=#000000;" parent="1" vertex="1">
          <mxGeometry x="520" y="-2270" width="140" height="50" as="geometry" />
        </mxCell>
        <mxCell id="-OIp5PMVZEEh26yyn5nA-74" value="Définir nombres de convives par défaut" style="ellipse;whiteSpace=wrap;html=1;fillColor=#f0a30a;strokeColor=#BD7000;fontColor=#000000;" parent="1" vertex="1">
          <mxGeometry x="470" y="-2160" width="190" height="70" as="geometry" />
        </mxCell>
        <mxCell id="-OIp5PMVZEEh26yyn5nA-75" value="Définir le créneau horaire" style="ellipse;whiteSpace=wrap;html=1;fillColor=#f0a30a;strokeColor=#BD7000;fontColor=#000000;" parent="1" vertex="1">
          <mxGeometry x="547.5" y="-1915" width="132.5" height="50" as="geometry" />
        </mxCell>
        <mxCell id="-OIp5PMVZEEh26yyn5nA-76" value="Déclarer les allergies par défaut" style="ellipse;whiteSpace=wrap;html=1;fillColor=#f0a30a;strokeColor=#BD7000;fontColor=#000000;" parent="1" vertex="1">
          <mxGeometry x="520" y="-1770" width="155" height="60" as="geometry" />
        </mxCell>
        <mxCell id="-OIp5PMVZEEh26yyn5nA-77" value="Définir le nombre de convives" style="ellipse;whiteSpace=wrap;html=1;fillColor=#f0a30a;strokeColor=#BD7000;fontColor=#000000;" parent="1" vertex="1">
          <mxGeometry x="510" y="-2000" width="170" height="50" as="geometry" />
        </mxCell>
        <mxCell id="-OIp5PMVZEEh26yyn5nA-78" value="Déclarer des allergies" style="ellipse;whiteSpace=wrap;html=1;fillColor=#f0a30a;strokeColor=#BD7000;fontColor=#000000;" parent="1" vertex="1">
          <mxGeometry x="530" y="-1860" width="180" height="55" as="geometry" />
        </mxCell>
        <mxCell id="-OIp5PMVZEEh26yyn5nA-79" value="Modifier nombre de convives par defaut" style="ellipse;whiteSpace=wrap;html=1;fillColor=#f0a30a;strokeColor=#BD7000;fontColor=#000000;" parent="1" vertex="1">
          <mxGeometry x="355" y="-1390" width="210" height="50" as="geometry" />
        </mxCell>
        <mxCell id="-OIp5PMVZEEh26yyn5nA-80" value="Modifier les allergies&amp;nbsp;" style="ellipse;whiteSpace=wrap;html=1;fillColor=#f0a30a;strokeColor=#BD7000;fontColor=#000000;" parent="1" vertex="1">
          <mxGeometry x="372.5" y="-1330" width="180" height="50" as="geometry" />
        </mxCell>
        <mxCell id="-OIp5PMVZEEh26yyn5nA-83" value="Gérer les plats" style="ellipse;whiteSpace=wrap;html=1;fillColor=#1ba1e2;strokeColor=#006EAF;fontColor=#ffffff;" parent="1" vertex="1">
          <mxGeometry x="495.63" y="-1010" width="150" height="50" as="geometry" />
        </mxCell>
        <mxCell id="-OIp5PMVZEEh26yyn5nA-85" value="Ajouter une image" style="ellipse;whiteSpace=wrap;html=1;fillColor=#f0a30a;strokeColor=#BD7000;fontColor=#000000;" parent="1" vertex="1">
          <mxGeometry x="387.5" y="-685" width="180" height="50" as="geometry" />
        </mxCell>
        <mxCell id="-OIp5PMVZEEh26yyn5nA-86" value="Supprimer une image" style="ellipse;whiteSpace=wrap;html=1;fillColor=#f0a30a;strokeColor=#BD7000;fontColor=#000000;" parent="1" vertex="1">
          <mxGeometry x="385" y="-630" width="200" height="50" as="geometry" />
        </mxCell>
        <mxCell id="-OIp5PMVZEEh26yyn5nA-87" value="Modifier une image&amp;nbsp;" style="ellipse;whiteSpace=wrap;html=1;fillColor=#f0a30a;strokeColor=#BD7000;fontColor=#000000;" parent="1" vertex="1">
          <mxGeometry x="390" y="-570" width="210" height="45" as="geometry" />
        </mxCell>
        <mxCell id="-OIp5PMVZEEh26yyn5nA-88" value="Ajouter un horaire" style="ellipse;whiteSpace=wrap;html=1;fillColor=#f0a30a;strokeColor=#BD7000;fontColor=#000000;" parent="1" vertex="1">
          <mxGeometry x="395" y="-480" width="160" height="40" as="geometry" />
        </mxCell>
        <mxCell id="-OIp5PMVZEEh26yyn5nA-89" value="Supprimer un horaire" style="ellipse;whiteSpace=wrap;html=1;fillColor=#f0a30a;strokeColor=#BD7000;fontColor=#000000;" parent="1" vertex="1">
          <mxGeometry x="390" y="-430" width="180" height="50" as="geometry" />
        </mxCell>
        <mxCell id="-OIp5PMVZEEh26yyn5nA-90" value="Modifier un horaire" style="ellipse;whiteSpace=wrap;html=1;fillColor=#f0a30a;strokeColor=#BD7000;fontColor=#000000;" parent="1" vertex="1">
          <mxGeometry x="400" y="-370" width="180" height="50" as="geometry" />
        </mxCell>
        <mxCell id="-OIp5PMVZEEh26yyn5nA-93" value="Ajouter une réservation&amp;nbsp;" style="ellipse;whiteSpace=wrap;html=1;fillColor=#f0a30a;strokeColor=#BD7000;fontColor=#000000;" parent="1" vertex="1">
          <mxGeometry x="357.5" y="-290" width="180" height="50" as="geometry" />
        </mxCell>
        <mxCell id="-OIp5PMVZEEh26yyn5nA-94" value="Supprimer une réservation&amp;nbsp;" style="ellipse;whiteSpace=wrap;html=1;fillColor=#f0a30a;strokeColor=#BD7000;fontColor=#000000;" parent="1" vertex="1">
          <mxGeometry x="357.5" y="-230" width="180" height="50" as="geometry" />
        </mxCell>
        <mxCell id="-OIp5PMVZEEh26yyn5nA-96" value="Visualiser les réservation" style="ellipse;whiteSpace=wrap;html=1;fillColor=#f0a30a;strokeColor=#BD7000;fontColor=#000000;" parent="1" vertex="1">
          <mxGeometry x="356.25" y="-100" width="240" height="60" as="geometry" />
        </mxCell>
        <mxCell id="-OIp5PMVZEEh26yyn5nA-97" value="Se Connecter" style="ellipse;whiteSpace=wrap;html=1;fillColor=#fa6800;strokeColor=#C73500;fontColor=#000000;" parent="1" vertex="1">
          <mxGeometry x="1080" y="-1310" width="230" height="130" as="geometry" />
        </mxCell>
        <mxCell id="-OIp5PMVZEEh26yyn5nA-99" value="Modifier une réservation&amp;nbsp;" style="ellipse;whiteSpace=wrap;html=1;fillColor=#f0a30a;strokeColor=#BD7000;fontColor=#000000;" parent="1" vertex="1">
          <mxGeometry x="347.5" y="-170" width="200" height="55" as="geometry" />
        </mxCell>
        <mxCell id="-OIp5PMVZEEh26yyn5nA-100" value="Ajouter un plat" style="ellipse;whiteSpace=wrap;html=1;fillColor=#f0a30a;strokeColor=#BD7000;fontColor=#000000;" parent="1" vertex="1">
          <mxGeometry x="667.5" y="-1060" width="190" height="45" as="geometry" />
        </mxCell>
        <mxCell id="-OIp5PMVZEEh26yyn5nA-101" value="Supprimer un plat" style="ellipse;whiteSpace=wrap;html=1;fillColor=#f0a30a;strokeColor=#BD7000;fontColor=#000000;" parent="1" vertex="1">
          <mxGeometry x="670" y="-1000" width="180" height="50" as="geometry" />
        </mxCell>
        <mxCell id="-OIp5PMVZEEh26yyn5nA-102" value="Modifier un plat" style="ellipse;whiteSpace=wrap;html=1;fillColor=#f0a30a;strokeColor=#BD7000;fontColor=#000000;" parent="1" vertex="1">
          <mxGeometry x="665" y="-945" width="210" height="50" as="geometry" />
        </mxCell>
        <mxCell id="-OIp5PMVZEEh26yyn5nA-106" value="Ajouter un menu&amp;nbsp;" style="ellipse;whiteSpace=wrap;html=1;fillColor=#f0a30a;strokeColor=#BD7000;fontColor=#000000;" parent="1" vertex="1">
          <mxGeometry x="670" y="-885" width="200" height="60" as="geometry" />
        </mxCell>
        <mxCell id="-OIp5PMVZEEh26yyn5nA-107" value="Supprimer un menu" style="ellipse;whiteSpace=wrap;html=1;fillColor=#f0a30a;strokeColor=#BD7000;fontColor=#000000;" parent="1" vertex="1">
          <mxGeometry x="675" y="-820" width="200" height="55" as="geometry" />
        </mxCell>
        <mxCell id="-OIp5PMVZEEh26yyn5nA-108" value="Modifier un menu" style="ellipse;whiteSpace=wrap;html=1;fillColor=#f0a30a;strokeColor=#BD7000;fontColor=#000000;" parent="1" vertex="1">
          <mxGeometry x="670" y="-757.5" width="220" height="47.5" as="geometry" />
        </mxCell>
        <mxCell id="-OIp5PMVZEEh26yyn5nA-109" style="edgeStyle=orthogonalEdgeStyle;rounded=0;orthogonalLoop=1;jettySize=auto;html=1;exitX=0.5;exitY=1;exitDx=0;exitDy=0;" parent="1" source="-OIp5PMVZEEh26yyn5nA-101" target="-OIp5PMVZEEh26yyn5nA-101" edge="1">
          <mxGeometry relative="1" as="geometry" />
        </mxCell>
        <mxCell id="rzeUvQbNTKnx_8VMmRqY-95" value="" style="edgeStyle=orthogonalEdgeStyle;rounded=0;orthogonalLoop=1;jettySize=auto;html=1;entryX=1;entryY=0.5;entryDx=0;entryDy=0;" parent="1" target="-OIp5PMVZEEh26yyn5nA-110" edge="1">
          <mxGeometry relative="1" as="geometry">
            <mxPoint x="400" y="-1740" as="sourcePoint" />
            <mxPoint x="370" y="-1780" as="targetPoint" />
            <Array as="points">
              <mxPoint x="380" y="-1740" />
              <mxPoint x="380" y="-1765" />
            </Array>
          </mxGeometry>
        </mxCell>
        <mxCell id="-OIp5PMVZEEh26yyn5nA-110" value="Si connecté et allergies définies dans le compte" style="rounded=1;whiteSpace=wrap;html=1;fillColor=#a20025;strokeColor=#6F0000;fontColor=#ffffff;" parent="1" vertex="1">
          <mxGeometry x="122.5" y="-1800" width="227.5" height="70" as="geometry" />
        </mxCell>
        <mxCell id="-OIp5PMVZEEh26yyn5nA-142" value="" style="line;strokeWidth=3;html=1;strokeColor=#FFFF33;perimeterSpacing=3;" parent="1" vertex="1">
          <mxGeometry x="73.75" y="-1690" width="107.5" height="10" as="geometry" />
        </mxCell>
        <mxCell id="-OIp5PMVZEEh26yyn5nA-147" value="" style="line;strokeWidth=2;html=1;strokeColor=#FF0000;" parent="1" vertex="1">
          <mxGeometry x="105" y="-1190" width="60" height="20" as="geometry" />
        </mxCell>
        <mxCell id="-OIp5PMVZEEh26yyn5nA-156" value="" style="line;strokeWidth=3;html=1;perimeterSpacing=3;" parent="1" vertex="1">
          <mxGeometry x="47.5" y="-1890" width="225" height="10" as="geometry" />
        </mxCell>
        <mxCell id="-OIp5PMVZEEh26yyn5nA-158" value="" style="line;strokeWidth=3;html=1;perimeterSpacing=3;" parent="1" vertex="1">
          <mxGeometry x="57.5" y="-1365" width="92.5" height="10" as="geometry" />
        </mxCell>
        <mxCell id="-OIp5PMVZEEh26yyn5nA-160" value="" style="line;strokeWidth=3;html=1;perimeterSpacing=3;" parent="1" vertex="1">
          <mxGeometry x="40" y="-960" width="150" height="10" as="geometry" />
        </mxCell>
        <mxCell id="-OIp5PMVZEEh26yyn5nA-170" value="" style="line;strokeWidth=2;html=1;" parent="1" vertex="1">
          <mxGeometry x="80" y="-170" width="20" as="geometry" />
        </mxCell>
        <mxCell id="-OIp5PMVZEEh26yyn5nA-179" value="" style="line;strokeWidth=4;direction=south;html=1;perimeter=backbonePerimeter;points=[];outlineConnect=0;strokeColor=#FF0000;" parent="1" vertex="1">
          <mxGeometry x="67.5" y="-955" width="10" height="785" as="geometry" />
        </mxCell>
        <mxCell id="-OIp5PMVZEEh26yyn5nA-184" value="" style="line;strokeWidth=3;html=1;strokeColor=#FF0000;perimeterSpacing=3;" parent="1" vertex="1">
          <mxGeometry x="72.5" y="-175" width="72.5" height="10" as="geometry" />
        </mxCell>
        <mxCell id="-OIp5PMVZEEh26yyn5nA-189" value="" style="line;strokeWidth=4;direction=south;html=1;perimeter=backbonePerimeter;points=[];outlineConnect=0;strokeColor=#6600CC;" parent="1" vertex="1">
          <mxGeometry x="87.5" y="-955" width="10" height="355" as="geometry" />
        </mxCell>
        <mxCell id="-OIp5PMVZEEh26yyn5nA-190" value="" style="line;strokeWidth=2;html=1;strokeColor=#6600CC;" parent="1" vertex="1">
          <mxGeometry x="92.5" y="-610" width="95" height="10" as="geometry" />
        </mxCell>
        <mxCell id="-OIp5PMVZEEh26yyn5nA-192" value="" style="line;strokeWidth=4;direction=south;html=1;perimeter=backbonePerimeter;points=[];outlineConnect=0;strokeColor=#CC6600;" parent="1" vertex="1">
          <mxGeometry x="110" y="-955" width="10" height="545" as="geometry" />
        </mxCell>
        <mxCell id="-OIp5PMVZEEh26yyn5nA-193" value="" style="line;strokeWidth=2;html=1;strokeColor=#CC6600;" parent="1" vertex="1">
          <mxGeometry x="115" y="-420" width="50" height="20" as="geometry" />
        </mxCell>
        <mxCell id="-OIp5PMVZEEh26yyn5nA-202" value="" style="line;strokeWidth=4;direction=south;html=1;perimeter=backbonePerimeter;points=[];outlineConnect=0;strokeColor=#FFFF00;" parent="1" vertex="1">
          <mxGeometry x="73.75" y="-2240" width="10" height="560" as="geometry" />
        </mxCell>
        <mxCell id="-OIp5PMVZEEh26yyn5nA-204" value="" style="line;strokeWidth=3;html=1;strokeColor=#FFFF00;perimeterSpacing=3;" parent="1" vertex="1">
          <mxGeometry x="73.75" y="-2220" width="107.5" height="10" as="geometry" />
        </mxCell>
        <mxCell id="-OIp5PMVZEEh26yyn5nA-240" value="" style="shape=curlyBracket;whiteSpace=wrap;html=1;rounded=1;labelPosition=left;verticalLabelPosition=middle;align=right;verticalAlign=middle;size=0.5;" parent="1" vertex="1">
          <mxGeometry x="361.25" y="-470" width="37.5" height="120" as="geometry" />
        </mxCell>
        <mxCell id="-OIp5PMVZEEh26yyn5nA-250" value="" style="shape=curlyBracket;whiteSpace=wrap;html=1;rounded=1;labelPosition=left;verticalLabelPosition=middle;align=right;verticalAlign=middle;" parent="1" vertex="1">
          <mxGeometry x="317.5" y="-1420" width="52.5" height="120" as="geometry" />
        </mxCell>
        <mxCell id="-OIp5PMVZEEh26yyn5nA-259" value="" style="shape=curlyBracket;whiteSpace=wrap;html=1;rounded=1;labelPosition=left;verticalLabelPosition=middle;align=right;verticalAlign=middle;size=0.4;" parent="1" vertex="1">
          <mxGeometry x="330" y="-1200" width="50" height="80" as="geometry" />
        </mxCell>
        <mxCell id="rzeUvQbNTKnx_8VMmRqY-93" value="" style="edgeStyle=orthogonalEdgeStyle;rounded=0;orthogonalLoop=1;jettySize=auto;html=1;entryX=0.47;entryY=-0.023;entryDx=0;entryDy=0;entryPerimeter=0;" parent="1" target="-OIp5PMVZEEh26yyn5nA-97" edge="1">
          <mxGeometry relative="1" as="geometry">
            <mxPoint x="675" y="-1740" as="sourcePoint" />
            <mxPoint x="1190" y="-1420" as="targetPoint" />
            <Array as="points">
              <mxPoint x="1188" y="-1740" />
            </Array>
          </mxGeometry>
        </mxCell>
        <mxCell id="-OIp5PMVZEEh26yyn5nA-281" value="&amp;lt;&amp;lt; extend &amp;gt;&amp;gt;" style="text;html=1;align=center;verticalAlign=middle;resizable=0;points=[];autosize=1;strokeColor=none;fillColor=none;" parent="1" vertex="1">
          <mxGeometry x="385" y="-1768" width="90" height="30" as="geometry" />
        </mxCell>
        <mxCell id="-OIp5PMVZEEh26yyn5nA-284" value="&amp;lt;&amp;lt;include&amp;gt;&amp;gt;" style="text;html=1;align=center;verticalAlign=middle;resizable=0;points=[];autosize=1;strokeColor=none;fillColor=none;" parent="1" vertex="1">
          <mxGeometry x="715" y="-1768" width="90" height="30" as="geometry" />
        </mxCell>
        <mxCell id="-OIp5PMVZEEh26yyn5nA-326" style="edgeStyle=orthogonalEdgeStyle;rounded=0;orthogonalLoop=1;jettySize=auto;html=1;" parent="1" source="-OIp5PMVZEEh26yyn5nA-289" edge="1">
          <mxGeometry relative="1" as="geometry">
            <mxPoint x="1160" y="-1180" as="targetPoint" />
            <Array as="points">
              <mxPoint x="1160" y="-700" />
            </Array>
          </mxGeometry>
        </mxCell>
        <mxCell id="-OIp5PMVZEEh26yyn5nA-289" value="&amp;lt;&amp;lt;include&amp;gt;&amp;gt;" style="text;html=1;align=center;verticalAlign=middle;resizable=0;points=[];autosize=1;strokeColor=none;fillColor=none;" parent="1" vertex="1">
          <mxGeometry x="227.5" y="-695" width="90" height="30" as="geometry" />
        </mxCell>
        <mxCell id="-OIp5PMVZEEh26yyn5nA-331" value="" style="edgeStyle=elbowEdgeStyle;elbow=vertical;endArrow=classic;html=1;curved=0;rounded=0;endSize=8;startSize=8;startArrow=none;entryX=0.786;entryY=0.938;entryDx=0;entryDy=0;entryPerimeter=0;" parent="1" source="-OIp5PMVZEEh26yyn5nA-290" target="-OIp5PMVZEEh26yyn5nA-97" edge="1">
          <mxGeometry width="50" height="50" relative="1" as="geometry">
            <mxPoint x="225" y="-445" as="sourcePoint" />
            <mxPoint x="1266" y="-1170" as="targetPoint" />
            <Array as="points">
              <mxPoint x="720" y="-510" />
              <mxPoint x="1190" y="-620" />
              <mxPoint x="1200" y="-510" />
              <mxPoint x="210" y="-590" />
              <mxPoint x="1231" y="-890" />
              <mxPoint x="235" y="-485" />
            </Array>
          </mxGeometry>
        </mxCell>
        <mxCell id="rzeUvQbNTKnx_8VMmRqY-52" style="edgeStyle=orthogonalEdgeStyle;rounded=0;orthogonalLoop=1;jettySize=auto;html=1;entryX=0.225;entryY=0;entryDx=0;entryDy=0;entryPerimeter=0;" parent="1" source="-OIp5PMVZEEh26yyn5nA-290" target="-OIp5PMVZEEh26yyn5nA-67" edge="1">
          <mxGeometry relative="1" as="geometry" />
        </mxCell>
        <mxCell id="-OIp5PMVZEEh26yyn5nA-290" value="&amp;lt;&amp;lt;include&amp;gt;&amp;gt;" style="text;html=1;align=center;verticalAlign=middle;resizable=0;points=[];autosize=1;strokeColor=none;fillColor=none;" parent="1" vertex="1">
          <mxGeometry x="165" y="-490" width="90" height="30" as="geometry" />
        </mxCell>
        <mxCell id="JmWJfgHFlqachSmG-uFM-4" value="" style="shape=curlyBracket;whiteSpace=wrap;html=1;rounded=1;labelPosition=left;verticalLabelPosition=middle;align=right;verticalAlign=middle;" parent="1" vertex="1">
          <mxGeometry x="335" y="-270" width="20" height="200" as="geometry" />
        </mxCell>
        <mxCell id="JmWJfgHFlqachSmG-uFM-8" value="" style="shape=curlyBracket;whiteSpace=wrap;html=1;rounded=1;labelPosition=left;verticalLabelPosition=middle;align=right;verticalAlign=middle;" parent="1" vertex="1">
          <mxGeometry x="365" y="-665" width="20" height="120" as="geometry" />
        </mxCell>
        <mxCell id="JmWJfgHFlqachSmG-uFM-9" value="" style="shape=curlyBracket;whiteSpace=wrap;html=1;rounded=1;labelPosition=left;verticalLabelPosition=middle;align=right;verticalAlign=middle;" parent="1" vertex="1">
          <mxGeometry x="642.5" y="-1042.5" width="25" height="115" as="geometry" />
        </mxCell>
        <mxCell id="JmWJfgHFlqachSmG-uFM-10" value="" style="shape=curlyBracket;whiteSpace=wrap;html=1;rounded=1;labelPosition=left;verticalLabelPosition=middle;align=right;verticalAlign=middle;" parent="1" vertex="1">
          <mxGeometry x="650" y="-852.5" width="20" height="120" as="geometry" />
        </mxCell>
        <mxCell id="rzeUvQbNTKnx_8VMmRqY-108" style="edgeStyle=orthogonalEdgeStyle;rounded=0;orthogonalLoop=1;jettySize=auto;html=1;exitX=0.1;exitY=0.5;exitDx=0;exitDy=0;exitPerimeter=0;entryX=1;entryY=0.5;entryDx=0;entryDy=0;" parent="1" source="JmWJfgHFlqachSmG-uFM-11" target="-OIp5PMVZEEh26yyn5nA-65" edge="1">
          <mxGeometry relative="1" as="geometry" />
        </mxCell>
        <mxCell id="JmWJfgHFlqachSmG-uFM-11" value="" style="shape=curlyBracket;whiteSpace=wrap;html=1;rounded=1;labelPosition=left;verticalLabelPosition=middle;align=right;verticalAlign=middle;" parent="1" vertex="1">
          <mxGeometry x="466.88" y="-985" width="28.75" height="195" as="geometry" />
        </mxCell>
        <mxCell id="-OIp5PMVZEEh26yyn5nA-84" value="Gérer les menus" style="ellipse;whiteSpace=wrap;html=1;fillColor=#1ba1e2;strokeColor=#006EAF;fontColor=#ffffff;" parent="1" vertex="1">
          <mxGeometry x="495.63" y="-817.5" width="161.25" height="50" as="geometry" />
        </mxCell>
        <mxCell id="JmWJfgHFlqachSmG-uFM-42" value="Se deconnecter" style="strokeWidth=2;html=1;shape=mxgraph.flowchart.start_1;whiteSpace=wrap;fillColor=#f0a30a;fontColor=#000000;strokeColor=#BD7000;" parent="1" vertex="1">
          <mxGeometry x="367.5" y="-1440" width="190" height="40" as="geometry" />
        </mxCell>
        <mxCell id="Hcvk5fuusz_JD4a-3mQA-9" value="" style="endArrow=classic;html=1;rounded=0;" parent="1" edge="1">
          <mxGeometry width="50" height="50" relative="1" as="geometry">
            <mxPoint x="273" y="-640" as="sourcePoint" />
            <mxPoint x="272.5" y="-675" as="targetPoint" />
          </mxGeometry>
        </mxCell>
        <mxCell id="rzeUvQbNTKnx_8VMmRqY-12" value="" style="edgeStyle=orthogonalEdgeStyle;rounded=0;orthogonalLoop=1;jettySize=auto;html=1;" parent="1" source="-OIp5PMVZEEh26yyn5nA-291" target="-OIp5PMVZEEh26yyn5nA-68" edge="1">
          <mxGeometry relative="1" as="geometry" />
        </mxCell>
        <mxCell id="rzeUvQbNTKnx_8VMmRqY-13" value="" style="edgeStyle=orthogonalEdgeStyle;rounded=0;orthogonalLoop=1;jettySize=auto;html=1;" parent="1" source="-OIp5PMVZEEh26yyn5nA-291" target="-OIp5PMVZEEh26yyn5nA-68" edge="1">
          <mxGeometry relative="1" as="geometry" />
        </mxCell>
        <mxCell id="rzeUvQbNTKnx_8VMmRqY-14" value="" style="edgeStyle=orthogonalEdgeStyle;rounded=0;orthogonalLoop=1;jettySize=auto;html=1;" parent="1" source="-OIp5PMVZEEh26yyn5nA-291" target="-OIp5PMVZEEh26yyn5nA-68" edge="1">
          <mxGeometry relative="1" as="geometry" />
        </mxCell>
        <mxCell id="rzeUvQbNTKnx_8VMmRqY-16" value="" style="edgeStyle=elbowEdgeStyle;elbow=vertical;endArrow=classic;html=1;curved=0;rounded=0;endSize=8;startSize=8;" parent="1" source="-OIp5PMVZEEh26yyn5nA-291" target="-OIp5PMVZEEh26yyn5nA-97" edge="1">
          <mxGeometry width="50" height="50" relative="1" as="geometry">
            <mxPoint x="240" y="-215" as="sourcePoint" />
            <mxPoint x="1290" y="-370" as="targetPoint" />
            <Array as="points">
              <mxPoint x="350" y="-310" />
              <mxPoint x="1300" y="-380" />
              <mxPoint x="1020" y="-330" />
            </Array>
          </mxGeometry>
        </mxCell>
        <mxCell id="-OIp5PMVZEEh26yyn5nA-291" value="&amp;lt;&amp;lt;include&amp;gt;&amp;gt;" style="text;html=1;align=center;verticalAlign=middle;resizable=0;points=[];autosize=1;strokeColor=none;fillColor=none;" parent="1" vertex="1">
          <mxGeometry x="195" y="-280" width="90" height="30" as="geometry" />
        </mxCell>
        <mxCell id="rzeUvQbNTKnx_8VMmRqY-30" value="" style="edgeStyle=elbowEdgeStyle;elbow=vertical;endArrow=classic;html=1;curved=0;rounded=0;endSize=8;startSize=8;entryX=0.219;entryY=0.963;entryDx=0;entryDy=0;entryPerimeter=0;" parent="1" source="-OIp5PMVZEEh26yyn5nA-288" target="-OIp5PMVZEEh26yyn5nA-97" edge="1">
          <mxGeometry width="50" height="50" relative="1" as="geometry">
            <mxPoint x="256.25" y="-990" as="sourcePoint" />
            <mxPoint x="306.25" y="-1040" as="targetPoint" />
            <Array as="points">
              <mxPoint x="700" y="-1080" />
            </Array>
          </mxGeometry>
        </mxCell>
        <mxCell id="rzeUvQbNTKnx_8VMmRqY-85" value="" style="edgeStyle=orthogonalEdgeStyle;rounded=0;orthogonalLoop=1;jettySize=auto;html=1;" parent="1" source="-OIp5PMVZEEh26yyn5nA-288" target="-OIp5PMVZEEh26yyn5nA-65" edge="1">
          <mxGeometry relative="1" as="geometry" />
        </mxCell>
        <mxCell id="rzeUvQbNTKnx_8VMmRqY-86" value="" style="edgeStyle=orthogonalEdgeStyle;rounded=0;orthogonalLoop=1;jettySize=auto;html=1;" parent="1" source="-OIp5PMVZEEh26yyn5nA-288" target="-OIp5PMVZEEh26yyn5nA-65" edge="1">
          <mxGeometry relative="1" as="geometry" />
        </mxCell>
        <mxCell id="-OIp5PMVZEEh26yyn5nA-288" value="&amp;lt;&amp;lt;include&amp;gt;&amp;gt;" style="text;html=1;align=center;verticalAlign=middle;resizable=0;points=[];autosize=1;strokeColor=none;fillColor=none;" parent="1" vertex="1">
          <mxGeometry x="232.5" y="-1052.5" width="90" height="30" as="geometry" />
        </mxCell>
        <mxCell id="rzeUvQbNTKnx_8VMmRqY-47" value="" style="endArrow=classic;startArrow=classic;html=1;rounded=0;" parent="1" source="-OIp5PMVZEEh26yyn5nA-81" edge="1">
          <mxGeometry width="50" height="50" relative="1" as="geometry">
            <mxPoint x="430" y="-1130" as="sourcePoint" />
            <mxPoint x="480" y="-1180" as="targetPoint" />
            <Array as="points" />
          </mxGeometry>
        </mxCell>
        <mxCell id="-OIp5PMVZEEh26yyn5nA-81" value="Modifier une réservation" style="ellipse;whiteSpace=wrap;html=1;fillColor=#f0a30a;strokeColor=#BD7000;fontColor=#000000;" parent="1" vertex="1">
          <mxGeometry x="380" y="-1220" width="180" height="50" as="geometry" />
        </mxCell>
        <mxCell id="rzeUvQbNTKnx_8VMmRqY-49" value="" style="endArrow=classic;startArrow=classic;html=1;rounded=0;" parent="1" target="-OIp5PMVZEEh26yyn5nA-82" edge="1">
          <mxGeometry width="50" height="50" relative="1" as="geometry">
            <mxPoint x="430" y="-1130" as="sourcePoint" />
            <mxPoint x="232" y="-1310" as="targetPoint" />
            <Array as="points" />
          </mxGeometry>
        </mxCell>
        <mxCell id="-OIp5PMVZEEh26yyn5nA-82" value="Annuler une réservation" style="ellipse;whiteSpace=wrap;html=1;fillColor=#f0a30a;strokeColor=#BD7000;fontColor=#000000;" parent="1" vertex="1">
          <mxGeometry x="376.25" y="-1150" width="200" height="60" as="geometry" />
        </mxCell>
        <mxCell id="-OIp5PMVZEEh26yyn5nA-285" value="&amp;lt;&amp;lt;include&amp;gt;&amp;gt;" style="text;html=1;align=center;verticalAlign=middle;resizable=0;points=[];autosize=1;strokeColor=none;fillColor=none;" parent="1" vertex="1">
          <mxGeometry x="195" y="-1310" width="90" height="30" as="geometry" />
        </mxCell>
        <mxCell id="rzeUvQbNTKnx_8VMmRqY-54" style="edgeStyle=orthogonalEdgeStyle;rounded=0;orthogonalLoop=1;jettySize=auto;html=1;entryX=0.225;entryY=0;entryDx=0;entryDy=0;entryPerimeter=0;" parent="1" edge="1">
          <mxGeometry relative="1" as="geometry">
            <mxPoint x="239.5" y="-1210" as="sourcePoint" />
            <mxPoint x="239.5" y="-1207.5" as="targetPoint" />
            <Array as="points">
              <mxPoint x="239.5" y="-1222.5" />
            </Array>
          </mxGeometry>
        </mxCell>
        <mxCell id="rzeUvQbNTKnx_8VMmRqY-66" value="" style="edgeStyle=elbowEdgeStyle;elbow=vertical;endArrow=classic;html=1;curved=0;rounded=0;endSize=8;startSize=8;" parent="1" edge="1">
          <mxGeometry width="50" height="50" relative="1" as="geometry">
            <mxPoint x="240" y="-1240" as="sourcePoint" />
            <mxPoint x="1080" y="-1250" as="targetPoint" />
            <Array as="points">
              <mxPoint x="240" y="-1250" />
              <mxPoint x="689" y="-1247.5" />
            </Array>
          </mxGeometry>
        </mxCell>
        <mxCell id="rzeUvQbNTKnx_8VMmRqY-68" value="" style="endArrow=classic;html=1;rounded=0;" parent="1" edge="1">
          <mxGeometry width="50" height="50" relative="1" as="geometry">
            <mxPoint x="240" y="-1315" as="sourcePoint" />
            <mxPoint x="239.5" y="-1330" as="targetPoint" />
            <Array as="points">
              <mxPoint x="240" y="-1315" />
            </Array>
          </mxGeometry>
        </mxCell>
        <mxCell id="rzeUvQbNTKnx_8VMmRqY-69" value="" style="edgeStyle=elbowEdgeStyle;elbow=vertical;endArrow=classic;html=1;curved=0;rounded=0;endSize=8;startSize=8;exitX=0.5;exitY=0.667;exitDx=0;exitDy=0;exitPerimeter=0;" parent="1" source="-OIp5PMVZEEh26yyn5nA-285" target="-OIp5PMVZEEh26yyn5nA-97" edge="1">
          <mxGeometry width="50" height="50" relative="1" as="geometry">
            <mxPoint x="240" y="-1270" as="sourcePoint" />
            <mxPoint x="1075" y="-1279.5" as="targetPoint" />
            <Array as="points">
              <mxPoint x="350" y="-1270" />
              <mxPoint x="669" y="-1280" />
            </Array>
          </mxGeometry>
        </mxCell>
        <mxCell id="-OIp5PMVZEEh26yyn5nA-150" value="" style="shape=partialRectangle;whiteSpace=wrap;html=1;bottom=0;right=0;fillColor=none;strokeColor=#FF0000;perimeterSpacing=3;strokeWidth=4;" parent="1" vertex="1">
          <mxGeometry x="105" y="-1900" width="175" height="720" as="geometry" />
        </mxCell>
        <mxCell id="rzeUvQbNTKnx_8VMmRqY-81" value="&amp;lt;&amp;lt;include&amp;gt;&amp;gt;" style="text;html=1;align=center;verticalAlign=middle;resizable=0;points=[];autosize=1;strokeColor=none;fillColor=none;" parent="1" vertex="1">
          <mxGeometry x="195" y="-1250" width="90" height="30" as="geometry" />
        </mxCell>
        <mxCell id="rzeUvQbNTKnx_8VMmRqY-91" value="" style="endArrow=none;html=1;rounded=0;dashed=1;dashPattern=1 2;entryX=0;entryY=0.5;entryDx=0;entryDy=0;" parent="1" target="-OIp5PMVZEEh26yyn5nA-76" edge="1">
          <mxGeometry relative="1" as="geometry">
            <mxPoint x="350" y="-1740" as="sourcePoint" />
            <mxPoint x="500" y="-1740" as="targetPoint" />
            <Array as="points" />
          </mxGeometry>
        </mxCell>
        <mxCell id="rzeUvQbNTKnx_8VMmRqY-96" value="" style="endArrow=open;endFill=1;endSize=12;html=1;rounded=0;" parent="1" edge="1">
          <mxGeometry width="160" relative="1" as="geometry">
            <mxPoint x="310" y="-1800" as="sourcePoint" />
            <mxPoint x="310" y="-1860" as="targetPoint" />
          </mxGeometry>
        </mxCell>
        <mxCell id="rzeUvQbNTKnx_8VMmRqY-97" value="" style="strokeWidth=2;html=1;shape=mxgraph.flowchart.annotation_1;align=left;pointerEvents=1;" parent="1" vertex="1">
          <mxGeometry x="450" y="-1961.5" height="131.5" as="geometry" />
        </mxCell>
        <mxCell id="rzeUvQbNTKnx_8VMmRqY-99" value="" style="endArrow=classic;html=1;rounded=0;exitX=0;exitY=0.5;exitDx=0;exitDy=0;" parent="1" source="-OIp5PMVZEEh26yyn5nA-75" edge="1">
          <mxGeometry width="50" height="50" relative="1" as="geometry">
            <mxPoint x="510" y="-1885" as="sourcePoint" />
            <mxPoint x="410" y="-1890" as="targetPoint" />
            <Array as="points" />
          </mxGeometry>
        </mxCell>
        <mxCell id="rzeUvQbNTKnx_8VMmRqY-100" value="" style="endArrow=none;dashed=1;html=1;dashPattern=1 3;strokeWidth=2;rounded=0;" parent="1" source="-OIp5PMVZEEh26yyn5nA-278" edge="1">
          <mxGeometry width="50" height="50" relative="1" as="geometry">
            <mxPoint x="420" y="-1980" as="sourcePoint" />
            <mxPoint x="530" y="-1840" as="targetPoint" />
            <Array as="points">
              <mxPoint x="420" y="-1840" />
            </Array>
          </mxGeometry>
        </mxCell>
        <mxCell id="rzeUvQbNTKnx_8VMmRqY-101" value="" style="endArrow=none;dashed=1;html=1;dashPattern=1 3;strokeWidth=2;rounded=0;" parent="1" source="-OIp5PMVZEEh26yyn5nA-77" edge="1">
          <mxGeometry width="50" height="50" relative="1" as="geometry">
            <mxPoint x="510" y="-1977" as="sourcePoint" />
            <mxPoint x="430" y="-1850" as="targetPoint" />
            <Array as="points">
              <mxPoint x="430" y="-1975" />
              <mxPoint x="430" y="-1940" />
            </Array>
          </mxGeometry>
        </mxCell>
        <mxCell id="-OIp5PMVZEEh26yyn5nA-278" value="&amp;lt;&amp;lt; extend &amp;gt;&amp;gt;" style="text;html=1;align=center;verticalAlign=middle;resizable=0;points=[];autosize=1;strokeColor=none;fillColor=none;" parent="1" vertex="1">
          <mxGeometry x="391.26" y="-1870" width="90" height="30" as="geometry" />
        </mxCell>
        <mxCell id="rzeUvQbNTKnx_8VMmRqY-102" value="" style="endArrow=none;dashed=1;html=1;dashPattern=1 3;strokeWidth=2;rounded=0;" parent="1" edge="1">
          <mxGeometry width="50" height="50" relative="1" as="geometry">
            <mxPoint x="360" y="-2160" as="sourcePoint" />
            <mxPoint x="360" y="-2120" as="targetPoint" />
            <Array as="points">
              <mxPoint x="360" y="-2140" />
            </Array>
          </mxGeometry>
        </mxCell>
        <mxCell id="-OIp5PMVZEEh26yyn5nA-277" value="&amp;lt;&amp;lt; extend &amp;gt;&amp;gt;" style="text;html=1;align=center;verticalAlign=middle;resizable=0;points=[];autosize=1;strokeColor=none;fillColor=none;" parent="1" vertex="1">
          <mxGeometry x="310" y="-2190" width="90" height="30" as="geometry" />
        </mxCell>
        <mxCell id="rzeUvQbNTKnx_8VMmRqY-104" value="" style="endArrow=none;dashed=1;html=1;dashPattern=1 3;strokeWidth=2;rounded=0;" parent="1" target="-OIp5PMVZEEh26yyn5nA-276" edge="1">
          <mxGeometry width="50" height="50" relative="1" as="geometry">
            <mxPoint x="520" y="-2250" as="sourcePoint" />
            <mxPoint x="360" y="-2180" as="targetPoint" />
            <Array as="points">
              <mxPoint x="360" y="-2250" />
              <mxPoint x="360" y="-2130" />
              <mxPoint x="360" y="-2215" />
            </Array>
          </mxGeometry>
        </mxCell>
        <mxCell id="-OIp5PMVZEEh26yyn5nA-276" value="&amp;lt;&amp;lt; extend &amp;gt;&amp;gt;" style="text;html=1;align=center;verticalAlign=middle;resizable=0;points=[];autosize=1;strokeColor=none;fillColor=none;" parent="1" vertex="1">
          <mxGeometry x="310" y="-2240" width="90" height="30" as="geometry" />
        </mxCell>
        <mxCell id="rzeUvQbNTKnx_8VMmRqY-106" value="" style="endArrow=none;dashed=1;html=1;dashPattern=1 3;strokeWidth=2;rounded=0;" parent="1" edge="1">
          <mxGeometry width="50" height="50" relative="1" as="geometry">
            <mxPoint x="361.25" y="-2120" as="sourcePoint" />
            <mxPoint x="471.25" y="-2120" as="targetPoint" />
            <Array as="points">
              <mxPoint x="361.25" y="-2120" />
            </Array>
          </mxGeometry>
        </mxCell>
        <mxCell id="rzeUvQbNTKnx_8VMmRqY-107" value="" style="endArrow=classic;html=1;rounded=0;" parent="1" edge="1">
          <mxGeometry width="50" height="50" relative="1" as="geometry">
            <mxPoint x="360" y="-2205" as="sourcePoint" />
            <mxPoint x="300" y="-2205.5" as="targetPoint" />
          </mxGeometry>
        </mxCell>
        <mxCell id="psGj-f341gXHLFLm45fg-2" value="Diagramme de Cas d&#39;utilsation" style="text;html=1;align=center;verticalAlign=middle;resizable=0;points=[];autosize=1;strokeColor=#006EAF;fillColor=#1ba1e2;fontColor=#ffffff;" parent="1" vertex="1">
          <mxGeometry x="250" y="-2330" width="190" height="30" as="geometry" />
        </mxCell>
      </root>
    </mxGraphModel>
  </diagram>
</mxfile>
